inDegrees=no
num_controls=7
num_derivatives=13
num_iterations=132
num_multipliers=7
num_parameters=0
num_slacks=7
num_states=26
objective=5.557629
objective_accelerations=0.731981
objective_balance=0.046578
objective_effort=0.277844
objective_height=4.410624
objective_ligament=0.090602
solver_duration=1476.630584
status=Solve_Succeeded
success=true
DataType=double
version=3
OpenSimVersion=4.4-2022-07-23-0e9fedc
endheader
time	/jointset/ground_pelvis/pelvis_tilt/value	/jointset/ground_pelvis/pelvis_tx/value	/jointset/ground_pelvis/pelvis_ty/value	/jointset/hip_l/hip_flexion_l/value	/jointset/hip_l/hip_adduction_l/value	/jointset/hip_l/hip_rotation_l/value	/jointset/back/lumbar_extension/value	/jointset/patellofemoral_l/patellar_flexion_l/value	/jointset/knee_l/knee_flexion_l/value	/jointset/knee_l/knee_adduction_l/value	/jointset/knee_l/knee_rotation_l/value	/jointset/ankle_l/ankle_angle_l/value	/jointset/subtalar_l/subtalar_angle_l/value	/jointset/ground_pelvis/pelvis_tilt/speed	/jointset/ground_pelvis/pelvis_tx/speed	/jointset/ground_pelvis/pelvis_ty/speed	/jointset/hip_l/hip_flexion_l/speed	/jointset/hip_l/hip_adduction_l/speed	/jointset/hip_l/hip_rotation_l/speed	/jointset/back/lumbar_extension/speed	/jointset/patellofemoral_l/patellar_flexion_l/speed	/jointset/knee_l/knee_flexion_l/speed	/jointset/knee_l/knee_adduction_l/speed	/jointset/knee_l/knee_rotation_l/speed	/jointset/ankle_l/ankle_angle_l/speed	/jointset/subtalar_l/subtalar_angle_l/speed	/forceset/tau_hip_flexion_l	/forceset/tau_hip_adduction_l	/forceset/tau_hip_rotation_l	/forceset/tau_knee_flexion_l	/forceset/tau_ankle_angle_l	/forceset/tau_subtalar_angle_l	/forceset/tau_lumbar_extension	lambda_cid13_p0	lambda_cid13_p1	lambda_cid13_p2	lambda_cid13_p3	lambda_cid13_p4	lambda_cid13_p5	lambda_cid14_p0	/jointset/ground_pelvis/pelvis_tilt/accel	/jointset/ground_pelvis/pelvis_tx/accel	/jointset/ground_pelvis/pelvis_ty/accel	/jointset/hip_l/hip_flexion_l/accel	/jointset/hip_l/hip_adduction_l/accel	/jointset/hip_l/hip_rotation_l/accel	/jointset/back/lumbar_extension/accel	/jointset/patellofemoral_l/patellar_flexion_l/accel	/jointset/knee_l/knee_flexion_l/accel	/jointset/knee_l/knee_adduction_l/accel	/jointset/knee_l/knee_rotation_l/accel	/jointset/ankle_l/ankle_angle_l/accel	/jointset/subtalar_l/subtalar_angle_l/accel	gamma_cid13_p0	gamma_cid13_p1	gamma_cid13_p2	gamma_cid13_p3	gamma_cid13_p4	gamma_cid13_p5	gamma_cid14_p0
0.5	-0.3403081910493264	-0.0327026436943209	0.7590064928094958	1.100055052006309	-0.4368327719483255	-0.2261052237314226	-0.2539030783639955	0.8206679708650259	0.8206679708649951	-0.1185251823280849	-0.1630551199838865	0.1224335624054525	-0.02451598850357095	-0.7678752338023623	-0.2022069052017334	-0.5382468478499124	2.482147330967785	-0.2050973582621552	0.7627742544448264	-0.1187534958424143	2.02793527763541	2.027935277635466	0.1485711458220994	-0.06915092897067737	0.4944533532514208	0.02039466542085198	-0.1692901485183627	0.01725133460192983	-0.01199945409453462	-0.2163256823068638	0.05367156408788057	0.04845006744281508	0.1672475795611171	-15.21331682482883	-21.80337448977694	7.052598307096774	-6.027102977457639	-521.4962513805018	-67.26620451931723	-24.58895969340664	0.7823083212950144	0.5946588330281888	-0.4763791706474557	-1.33819544384974	0.750381142882249	-0.249445705627684	1.079742140343752	-1.283359720086867	-1.283359720086856	0.05885522558482698	0.1647065628524209	-0.5333327599988987	0.5553872494770449	-6.180175199777434e-07	-4.010987499760218e-07	3.099557886367271e-06	1.770241584034593e-07	-6.640216285847187e-07	5.676463485470306e-09	-4.907041236045546e-07
0.51	-0.347945953839878	-0.0346947312049367	0.7536013910398376	1.124804759593523	-0.4388474308798919	-0.2184884941913694	-0.2550377910060563	0.8408800350399076	0.8408800350398852	-0.117041140393961	-0.1637378478819522	0.1273501655814554	-0.0242863132418577	-0.7595656799616657	-0.1961933716354897	-0.5426577108397304	2.467453223033376	-0.1978214917831038	0.7604667104589192	-0.1082274899896955	2.014207996692803	2.014207996692826	0.1482319536631448	-0.06739477476512405	0.4887886393310772	0.02552379749013613	-0.1748284066422041	0.01793492973463606	-0.01197700291658418	-0.2190407773817147	0.05274638551041762	0.04876742239768198	0.1714784272699116	-15.70764102004092	-21.83159956351195	7.030768930931091	-5.892506235493481	-525.1487466984182	-66.9692808394141	-23.64379245306183	0.8719471646014155	0.6073221017822303	-0.4062008837368293	-1.586254175813066	0.7177634142514697	-0.2375757814014652	1.033261194862881	-1.457748833605756	-1.457748833610608	-0.08104158734600804	0.1816759504587948	-0.594833583600508	0.4888791495244856	-6.023191052634805e-07	-2.957524775285514e-07	3.14157092249754e-06	2.019297592670893e-07	-6.420937004846041e-07	9.174968858729126e-08	-4.823850479453716e-07
0.52	-0.3554972874421974	-0.0366261590832184	0.7481556284361636	1.149397278959883	-0.4407890163438955	-0.210898073498435	-0.2560683973121634	0.8609467590949136	0.8609467590948968	-0.1155606374115792	-0.1644028930177435	0.1322077630431481	-0.02400590606667737	-0.7505893961551801	-0.1900749787349118	-0.5463790146530649	2.450709686795897	-0.1904826647506699	0.7575124850198486	-0.09793222865188493	1.99886725365987	1.998867253659861	0.1478633554757806	-0.06561437651749126	0.4826522103887953	0.03054104811423784	-0.1803666647659579	0.01861852486738888	-0.01195455173883356	-0.2217558724565461	0.0518212069329665	0.04908477735261337	0.1757092749787717	-16.20496276356826	-21.86021454726116	7.010048671808847	-5.79437115446895	-528.8774198836467	-66.73627609395506	-22.7002310789422	0.9156543144529683	0.6156306998949305	-0.3384673353507807	-1.748081104463798	0.762973253558745	-0.3787819962603615	1.033593237362185	-1.606052138151941	-1.606052138151941	0.05297401990296456	0.1695553712683366	-0.6276757643866978	0.5330109604405161	-5.84426655547026e-07	-1.902081793017038e-07	3.171296150892811e-06	2.291569345206084e-07	-6.230200244527565e-07	1.781083611250886e-07	-4.7159679825024e-07
0.53	-0.3629557197596167	-0.03849597030273043	0.7426761310317831	1.173812450526665	-0.4426568696562904	-0.2033400214427434	-0.2569972793589473	0.8808521273758897	0.880852127375888	-0.1140840836670738	-0.1650497621753189	0.1370016869632369	-0.02367584020719436	-0.7409924377331459	-0.1838780207243342	-0.5494006833025359	2.431994359122899	-0.1830808856881527	0.7539983026949656	-0.08790209847954457	1.981944192834864	1.981944192834845	0.1474370614114325	-0.06375618396670382	0.4760562270656036	0.03544978273868261	-0.1857541109989352	0.01916265242280149	-0.01186902533073778	-0.224579910686989	0.05097371027894811	0.04919442444385322	0.179775062673729	-16.68389326460402	-21.79402724191135	6.965285704361574	-5.598053662730321	-532.5907548698257	-66.37352186741809	-21.76056127162306	0.9973322153674109	0.6231637094846332	-0.2661717920204533	-1.982890162905819	0.7294469090928333	-0.353082364936412	0.9790352411214794	-1.774671323705551	-1.774671323706926	-0.09190137292491835	0.1950786638702071	-0.6869953800186422	0.4661032293891031	-5.630626563292811e-07	-9.223984639994318e-08	3.179669503992241e-06	2.53258258962156e-07	-6.011475116639519e-07	2.620093419572806e-07	-4.587650504494796e-07
0.54	-0.370315059370962	-0.04030352487056785	0.7371699859084528	1.198030542503877	-0.4444505718427581	-0.1958201804131624	-0.2578275976372189	0.9005804173948125	0.9005804173948256	-0.1126120869138812	-0.1656778239140011	0.1417273638973491	-0.02329742729827824	-0.7307708549395501	-0.1776236483999884	-0.5517085584430307	2.41129376888238	-0.1756524395658593	0.7498702797967218	-0.07821947494913019	1.963451601248635	1.963451601248607	0.1469519572142406	-0.06185289274046671	0.4690028131930811	0.04021045800083486	-0.191141557231908	0.01970677997824319	-0.01178349892284417	-0.2274039489174195	0.05012621362494195	0.04930407153513749	0.1838408503686776	-17.16525495084086	-21.72797218713132	6.921183220352614	-5.440098283620908	-536.3723484976259	-66.07146289432404	-20.8299952625401	1.040579188765418	0.6271135626484915	-0.1957086335555448	-2.145133617967816	0.7683066655139872	-0.5015501109324773	0.9640919089770507	-1.919958290396256	-1.919958290396255	0.04121199333424432	0.1785751063582845	-0.7191618742529552	0.5033990879819754	-5.378577938335129e-07	-2.653432581257668e-09	3.164419505700528e-06	2.739011952713096e-07	-5.761784135270245e-07	3.431911745194412e-07	-4.436724111275979e-07
